<svg width="219" height="42" viewBox="0 0 219 42" fill="none" xmlns="http://www.w3.org/2000/svg">
<path d="M44.6697 36.2365V19.5613H50.4561C52.4413 19.5613 54.0715 19.9107 55.3466 20.6094C56.6379 21.2923 57.5901 22.2611 58.2035 23.5157C58.833 24.7544 59.1477 26.2155 59.1477 27.8989C59.1477 29.5823 58.833 31.0513 58.2035 32.3059C57.5901 33.5446 56.6379 34.5134 55.3466 35.2122C54.0715 35.8951 52.4413 36.2365 50.4561 36.2365H44.6697ZM47.7687 33.6161H50.3108C51.7312 33.6161 52.8529 33.3938 53.6761 32.9491C54.4992 32.4885 55.0884 31.8374 55.4435 30.9957C55.7986 30.1381 55.9761 29.1059 55.9761 27.8989C55.9761 26.7078 55.7986 25.6835 55.4435 24.8259C55.0884 23.9683 54.4992 23.3092 53.6761 22.8487C52.8529 22.3881 51.7312 22.1579 50.3108 22.1579H47.7687V33.6161Z" fill="#101828"/>
<path d="M67.6441 36.5224C66.4336 36.5224 65.3603 36.2683 64.4241 35.7601C63.488 35.2519 62.7536 34.5372 62.2209 33.6161C61.6883 32.695 61.422 31.631 61.422 30.424C61.422 29.2011 61.6802 28.1133 62.1967 27.1604C62.7294 26.2076 63.4557 25.4691 64.3757 24.945C65.3118 24.405 66.4094 24.1351 67.6684 24.1351C68.8466 24.1351 69.8877 24.3892 70.7915 24.8974C71.6954 25.4056 72.3975 26.1043 72.8979 26.9937C73.4144 27.8671 73.6726 28.8438 73.6726 29.9237C73.6726 30.0984 73.6645 30.2811 73.6484 30.4716C73.6484 30.6622 73.6403 30.8607 73.6242 31.0672H64.4968C64.5613 31.9883 64.8841 32.7109 65.4652 33.235C66.0624 33.759 66.7806 34.0211 67.6199 34.0211C68.2494 34.0211 68.774 33.8861 69.1936 33.6161C69.6294 33.3302 69.9522 32.965 70.1621 32.5203H73.3095C73.0835 33.2667 72.7042 33.9496 72.1716 34.569C71.6551 35.1725 71.0094 35.6489 70.2347 35.9983C69.4761 36.3477 68.6126 36.5224 67.6441 36.5224ZM67.6684 26.6125C66.9098 26.6125 66.2399 26.8269 65.6589 27.2557C65.0778 27.6686 64.7066 28.3039 64.5452 29.1614H70.5252C70.4768 28.3833 70.1863 27.7639 69.6536 27.3034C69.121 26.8428 68.4592 26.6125 67.6684 26.6125Z" fill="#101828"/>
<path d="M80.4191 36.5224C79.3861 36.5224 78.5387 36.3635 77.877 36.0459C77.2152 35.7124 76.7229 35.2757 76.4001 34.7357C76.0773 34.1958 75.9159 33.6002 75.9159 32.9491C75.9159 31.8533 76.3517 30.964 77.2233 30.2811C78.0949 29.5982 79.4022 29.2567 81.1454 29.2567H84.196V28.9709C84.196 28.1609 83.9619 27.5654 83.4938 27.1842C83.0258 26.8031 82.4447 26.6125 81.7507 26.6125C81.1212 26.6125 80.5724 26.7634 80.1043 27.0651C79.6363 27.351 79.3457 27.7798 79.2328 28.3515H76.2064C76.2871 27.4939 76.5777 26.7475 77.078 26.1123C77.5945 25.477 78.2563 24.9926 79.0633 24.6591C79.8703 24.3098 80.7742 24.1351 81.7749 24.1351C83.4858 24.1351 84.8335 24.5559 85.8181 25.3976C86.8026 26.2393 87.2949 27.4304 87.2949 28.9709V36.2365H84.656L84.3654 34.3308C84.0103 34.966 83.51 35.4901 82.8644 35.903C82.2349 36.3159 81.4198 36.5224 80.4191 36.5224ZM81.1212 34.1402C82.0089 34.1402 82.6949 33.8543 83.1791 33.2826C83.6795 32.7109 83.9942 32.0042 84.1233 31.1625H81.4844C80.6612 31.1625 80.0721 31.3133 79.717 31.6151C79.3619 31.9009 79.1843 32.2583 79.1843 32.6871C79.1843 33.1476 79.3619 33.5049 79.717 33.759C80.0721 34.0131 80.5401 34.1402 81.1212 34.1402Z" fill="#101828"/>
<path d="M90.2522 36.2365V19.0849H93.3512V36.2365H90.2522Z" fill="#101828"/>
<path d="M102.352 36.5224C101.142 36.5224 100.069 36.2683 99.1325 35.7601C98.1963 35.2519 97.4619 34.5372 96.9293 33.6161C96.3967 32.695 96.1303 31.631 96.1303 30.424C96.1303 29.2011 96.3886 28.1133 96.9051 27.1604C97.4377 26.2076 98.164 25.4691 99.084 24.945C100.02 24.405 101.118 24.1351 102.377 24.1351C103.555 24.1351 104.596 24.3892 105.5 24.8974C106.404 25.4056 107.106 26.1043 107.606 26.9937C108.123 27.8671 108.381 28.8438 108.381 29.9237C108.381 30.0984 108.373 30.2811 108.357 30.4716C108.357 30.6622 108.349 30.8607 108.333 31.0672H99.2051C99.2697 31.9883 99.5925 32.7109 100.174 33.235C100.771 33.759 101.489 34.0211 102.328 34.0211C102.958 34.0211 103.482 33.8861 103.902 33.6161C104.338 33.3302 104.661 32.965 104.87 32.5203H108.018C107.792 33.2667 107.413 33.9496 106.88 34.569C106.363 35.1725 105.718 35.6489 104.943 35.9983C104.184 36.3477 103.321 36.5224 102.352 36.5224ZM102.377 26.6125C101.618 26.6125 100.948 26.8269 100.367 27.2557C99.7862 27.6686 99.4149 28.3039 99.2535 29.1614H105.234C105.185 28.3833 104.895 27.7639 104.362 27.3034C103.829 26.8428 103.168 26.6125 102.377 26.6125Z" fill="#101828"/>
<path d="M110.987 36.2365V24.4209H113.747L114.038 26.6363C114.474 25.874 115.063 25.2706 115.805 24.8259C116.564 24.3653 117.452 24.1351 118.469 24.1351V27.351H117.597C116.919 27.351 116.314 27.4542 115.781 27.6607C115.248 27.8671 114.829 28.2245 114.522 28.7327C114.232 29.2409 114.086 29.9476 114.086 30.8528V36.2365H110.987Z" fill="#101828"/>
<path d="M125.55 36.5224C124.484 36.5224 123.548 36.3556 122.741 36.0221C121.934 35.6727 121.289 35.1963 120.804 34.5928C120.32 33.9893 120.03 33.2905 119.933 32.4965H123.056C123.153 32.957 123.411 33.3541 123.831 33.6876C124.267 34.0052 124.823 34.164 125.501 34.164C126.179 34.164 126.672 34.029 126.978 33.759C127.301 33.4891 127.462 33.1794 127.462 32.83C127.462 32.3218 127.236 31.9803 126.785 31.8057C126.333 31.6151 125.703 31.4325 124.896 31.2578C124.38 31.1466 123.855 31.0116 123.322 30.8528C122.79 30.694 122.297 30.4955 121.846 30.2572C121.41 30.0031 121.055 29.6855 120.78 29.3044C120.506 28.9073 120.369 28.423 120.369 27.8513C120.369 26.8031 120.788 25.9217 121.628 25.207C122.483 24.4924 123.677 24.1351 125.211 24.1351C126.631 24.1351 127.761 24.4606 128.6 25.1118C129.456 25.7629 129.964 26.6602 130.126 27.8036H127.196C127.019 26.9301 126.349 26.4934 125.187 26.4934C124.606 26.4934 124.154 26.6046 123.831 26.8269C123.524 27.0493 123.371 27.3272 123.371 27.6607C123.371 28.0101 123.605 28.288 124.073 28.4944C124.541 28.7009 125.162 28.8915 125.937 29.0662C126.776 29.2567 127.543 29.4711 128.237 29.7093C128.947 29.9317 129.512 30.2731 129.932 30.7337C130.352 31.1784 130.561 31.8215 130.561 32.6632C130.578 33.3938 130.384 34.0528 129.98 34.6404C129.577 35.228 128.996 35.6886 128.237 36.0221C127.479 36.3556 126.583 36.5224 125.55 36.5224Z" fill="#101828"/>
<path d="M133.307 36.2365V19.0849H136.406V26.2314C136.809 25.5802 137.35 25.072 138.028 24.7068C138.722 24.3256 139.513 24.1351 140.4 24.1351C141.885 24.1351 143.031 24.5956 143.838 25.5167C144.661 26.4378 145.073 27.7877 145.073 29.5664V36.2365H141.998V29.8523C141.998 28.8359 141.788 28.0577 141.369 27.5177C140.965 26.9778 140.32 26.7078 139.432 26.7078C138.56 26.7078 137.834 27.0095 137.253 27.613C136.688 28.2165 136.406 29.0582 136.406 30.1381V36.2365H133.307Z" fill="#101828"/>
<path d="M149.707 22.5866C149.142 22.5866 148.674 22.4199 148.303 22.0864C147.948 21.7529 147.77 21.332 147.77 20.8238C147.77 20.3156 147.948 19.9027 148.303 19.5851C148.674 19.2516 149.142 19.0849 149.707 19.0849C150.272 19.0849 150.732 19.2516 151.087 19.5851C151.458 19.9027 151.644 20.3156 151.644 20.8238C151.644 21.332 151.458 21.7529 151.087 22.0864C150.732 22.4199 150.272 22.5866 149.707 22.5866ZM148.157 36.2365V24.4209H151.256V36.2365H148.157Z" fill="#101828"/>
<path d="M154.491 41.4773V24.4209H157.251L157.59 26.1123C157.977 25.5882 158.486 25.1276 159.115 24.7306C159.761 24.3336 160.592 24.1351 161.609 24.1351C162.739 24.1351 163.748 24.405 164.635 24.945C165.523 25.485 166.225 26.2234 166.742 27.1604C167.258 28.0974 167.516 29.1614 167.516 30.3525C167.516 31.5436 167.258 32.6077 166.742 33.5446C166.225 34.4657 165.523 35.1963 164.635 35.7362C163.748 36.2603 162.739 36.5224 161.609 36.5224C160.705 36.5224 159.914 36.3556 159.236 36.0221C158.558 35.6886 158.01 35.2201 157.59 34.6166V41.4773H154.491ZM160.955 33.8543C161.94 33.8543 162.755 33.5288 163.401 32.8776C164.046 32.2265 164.369 31.3848 164.369 30.3525C164.369 29.3203 164.046 28.4706 163.401 27.8036C162.755 27.1366 161.94 26.8031 160.955 26.8031C159.955 26.8031 159.131 27.1366 158.486 27.8036C157.856 28.4547 157.542 29.2964 157.542 30.3287C157.542 31.361 157.856 32.2106 158.486 32.8776C159.131 33.5288 159.955 33.8543 160.955 33.8543Z" fill="#101828"/>
<path d="M178.298 36.5224C176.604 36.5224 175.119 36.1571 173.844 35.4266C172.585 34.696 171.592 33.6876 170.866 32.4012C170.156 31.0989 169.801 29.5982 169.801 27.8989C169.801 26.1996 170.156 24.7068 170.866 23.4204C171.592 22.1182 172.585 21.1018 173.844 20.3712C175.119 19.6407 176.604 19.2754 178.298 19.2754C179.977 19.2754 181.454 19.6407 182.729 20.3712C184.004 21.1018 184.997 22.1182 185.707 23.4204C186.417 24.7068 186.772 26.1996 186.772 27.8989C186.772 29.5982 186.417 31.0989 185.707 32.4012C184.997 33.6876 184.004 34.696 182.729 35.4266C181.454 36.1571 179.977 36.5224 178.298 36.5224ZM178.298 33.7829C179.913 33.7829 181.196 33.2588 182.148 32.2106C183.116 31.1625 183.601 29.7252 183.601 27.8989C183.601 26.0726 183.116 24.6353 182.148 23.5872C181.196 22.539 179.913 22.0149 178.298 22.0149C176.684 22.0149 175.393 22.539 174.425 23.5872C173.456 24.6353 172.972 26.0726 172.972 27.8989C172.972 29.7252 173.456 31.1625 174.425 32.2106C175.393 33.2588 176.684 33.7829 178.298 33.7829Z" fill="#101828"/>
<path d="M189.508 36.2365V19.5613H192.607L200.573 31.3054V19.5613H203.672V36.2365H200.573L192.607 24.5162V36.2365H189.508Z" fill="#101828"/>
<path d="M206.957 36.2365V19.5613H218.021V22.0149H210.056V26.5887H217.295V28.9709H210.056V33.7829H218.021V36.2365H206.957Z" fill="#101828"/>
<path d="M23.7573 0L23.6993 0.0758382L22.55 1.877L14.7077 14.1343H22.55H23.6993V15.1866V20.6564V36.6488H34.8833V15.1866V14.1343V3.1852V0H23.7573Z" fill="#00A14A"/>
<path d="M14.1364 15.2704L0.739998 36.6488H13.708L22.4676 22.6794V15.2704H14.1364Z" fill="#FFC84A"/>
</svg>
